<svg width="200" height="200" viewBox="0 0 200 200" xmlns="http://www.w3.org/2000/svg">
    <!-- Background Circle -->
    <circle cx="100" cy="100" r="90" fill="#f3f4f6"/>

    <!-- Gift Box Base -->
    <rect x="50" y="85" width="100" height="70" rx="5" ry="5" fill="#4f46e5"/>

    <!-- Gift Box Lid -->
    <rect x="45" y="65" width="110" height="25" rx="5" ry="5" fill="#6366f1"/>

    <!-- Gift Ribbon Vertical -->
    <rect x="95" y="60" width="10" height="100" fill="#a5b4fc"/>

    <!-- Gift Ribbon Horizontal -->
    <rect x="45" y="90" width="110" height="10" fill="#a5b4fc"/>

    <!-- Heart (Wishlist Icon) -->
    <path d="M140,45 C147,35 160,35 167,45 C174,55 174,70 167,80 L140,105 L113,80 C106,70 106,55 113,45 C120,35 133,35 140,45 Z"
          fill="#ec4899"/>

    <!-- Checklist Items -->
    <rect x="65" y="115" width="70" height="5" rx="2" ry="2" fill="white"/>
    <rect x="65" y="130" width="50" height="5" rx="2" ry="2" fill="white"/>

    <!-- Check Mark -->
    <path d="M45,120 L55,130 L70,110" stroke="#34d399" stroke-width="5" fill="none" stroke-linecap="round"
          stroke-linejoin="round"/>
</svg>